<svg xmlns="http://www.w3.org/2000/svg" xmlns:xlink="http://www.w3.org/1999/xlink" id="_图层_2" data-name="图层 2" viewBox="0 0 375.7 184.15"><defs><linearGradient id="_未命名的渐变_11" x1="187.85" x2="187.85" y1="51.78" y2="150.78" data-name="未命名的渐变 11" gradientUnits="userSpaceOnUse"><stop offset="0" stop-color="#efefef"/><stop offset=".22" stop-color="#f7f7f7" stop-opacity=".78"/><stop offset="1" stop-color="#fff" stop-opacity="0"/></linearGradient><linearGradient id="_未命名的渐变_45" x1="49.24" x2="49.24" y1="112.18" y2="116.4" data-name="未命名的渐变 45" gradientUnits="userSpaceOnUse"><stop offset="0" stop-color="#9ccdfd"/><stop offset="1" stop-color="#deeefe"/></linearGradient><linearGradient xlink:href="#_未命名的渐变_45" id="_未命名的渐变_45-2" x1="49.12" x2="49.12" y1="100.06" y2="114.65" data-name="未命名的渐变 45"/><linearGradient xlink:href="#_未命名的渐变_45" id="_未命名的渐变_45-3" x1="303.52" x2="303.52" y1="93.89" y2="99.29" data-name="未命名的渐变 45"/><linearGradient xlink:href="#_未命名的渐变_45" id="_未命名的渐变_45-4" x1="303.36" x2="303.36" y1="78.38" y2="97.04" data-name="未命名的渐变 45"/><linearGradient xlink:href="#_未命名的渐变_45" id="_未命名的渐变_45-5" x1="65.49" x2="83.57" y1="87.25" y2="87.25" data-name="未命名的渐变 45"/><linearGradient xlink:href="#_未命名的渐变_45" id="_未命名的渐变_45-6" x1="72.08" x2="77.75" y1="97.4" y2="97.4" data-name="未命名的渐变 45"/><linearGradient xlink:href="#_未命名的渐变_45" id="_未命名的渐变_45-7" x1="326.59" x2="344.68" y1="102.72" y2="102.72" data-name="未命名的渐变 45"/><linearGradient xlink:href="#_未命名的渐变_45" id="_未命名的渐变_45-8" x1="333.19" x2="338.85" y1="112.86" y2="112.86" data-name="未命名的渐变 45"/><linearGradient id="_未命名的渐变_75" x1="102.35" x2="250.19" y1="73.95" y2="73.95" data-name="未命名的渐变 75" gradientUnits="userSpaceOnUse"><stop offset="0" stop-color="#d9eeff"/><stop offset=".47" stop-color="#a6d9ff"/></linearGradient><style>.cls-2,.cls-3,.cls-4{fill-rule:evenodd}.cls-2{fill:#fbddc3}.cls-3{fill:#081424}.cls-4{fill:#0091ff}</style></defs><g id="_图层_1-2" data-name="图层 1"><path d="M375.7 140.22c-.11-5.04-2.26-10.8-8.42-16.78 0 0-9.47-9.73-25.61-12.61-5.42-2.18-18.28-5.32-52.25-40.5-14.28-12.58-35.87-35.98-51.87-6.31-4.6 6.97-7.1 14.77-18.75 6.31-22.34-16.24-24.01-8.4-53.55 22.68-7.49 7.19-33.78 38.12-74.64 6.32-42.49-31.91-68.24 9.21-73.89 24.12-2.88 4.9-16.71 34.32-16.71 34.32v26.38h375.7v-43.93Z" style="fill:url(#_未命名的渐变_11);fill-rule:evenodd"/><path d="M48.91 109.5h.67c.32 0 .59-.2.59.59v7.56c0 .32-.26.59-.59.59h-.67s-.59-.26-.59-.59v-7.56c0-.79.54-.59.59-.59Z" style="fill:url(#_未命名的渐变_45);fill-rule:evenodd"/><path d="M48.72 94.45c-7.02 7.27-8.7 16.72 0 17.04 8.85.31 9.04-11.19 0-17.04Z" style="fill:url(#_未命名的渐变_45-2);fill-rule:evenodd"/><path d="M303.09 90.46h.85c.42 0 .75-.26.75.75v9.67c0 .41-.34.75-.75.75h-.85c-.06 0-.75-.34-.75-.75v-9.67c0-1.01.69-.75.75-.75Z" style="fill:url(#_未命名的渐变_45-3);fill-rule:evenodd"/><path d="M302.85 71.19c-8.98 9.3-11.14 21.4 0 21.81 11.32.4 11.56-14.32 0-21.81Z" style="fill:url(#_未命名的渐变_45-4);fill-rule:evenodd"/><path d="M76.34 78.86c4.04 0 7.54 4.57 5.8 9.4 3.21.65 1.17 10.71-7.21 6.27-1.07-.78-2.09-1.04-2.09-1.04-5.77 2.51-7.02-2.35-7.31-4.18-.29-1.83 1.46-4.7 5.03-4.18-.87-2.87 1.01-6.27 5.79-6.27Z" style="fill:url(#_未命名的渐变_45-5);fill-rule:evenodd"/><path d="M74.92 94.74v10.24c0 .29-.23.52-.52.52s-.52-.23-.52-.52V94.15l-1.8-3.14.95-.26.84 2.35v-2.95c0-.61.23-.84.52-.84s.52.23.52.84v3.66l2.4-3.59.43.29-2.83 4.25Z" style="fill:url(#_未命名的渐变_45-6);fill-rule:evenodd"/><path d="M337.44 94.32c4.04 0 7.54 4.57 5.8 9.4 3.21.65 1.17 10.71-7.21 6.27-1.07-.78-2.09-1.04-2.09-1.04-5.77 2.51-7.02-2.35-7.31-4.18-.29-1.83 1.46-4.7 5.03-4.18-.87-2.87 1.01-6.27 5.79-6.27Z" style="fill:url(#_未命名的渐变_45-7);fill-rule:evenodd"/><path d="M336.02 110.2v10.24c0 .29-.23.52-.52.52s-.52-.23-.52-.52v-10.83l-1.8-3.14.95-.26.84 2.35v-2.95c0-.61.23-.84.52-.84s.52.23.52.84v3.66l2.4-3.59.43.29-2.83 4.25Z" style="fill:url(#_未命名的渐变_45-8);fill-rule:evenodd"/><path d="M143.96 30.76h.01-.01z" style="fill:#fff"/><path d="m246.78 128.12-14.17-14.17-5.32-5.32c8.21-11.59 12.68-25.54 12.67-39.81C239.96 30.87 209.08 0 171.13 0c-15.9 0-31.41 5.57-43.69 15.66-29.32 24.1-33.56 67.56-9.45 96.88 11.68 14.2 28.18 23 46.48 24.79 16.65 1.62 32.95-2.74 46.45-12.32l5.31 5.31 14.18 14.18c2.18 2.18 5.08 3.38 8.2 3.39 3.08 0 5.99-1.21 8.17-3.4l.07-.07c2.17-2.19 3.35-5.1 3.34-8.18-.02-3.08-1.23-5.98-3.41-8.12Zm-75.65-13.61c-25.18 0-45.67-20.49-45.67-45.66.04-25.14 20.52-45.63 45.67-45.68 25.18 0 45.67 20.49 45.67 45.67s-20.49 45.67-45.67 45.67Z" style="fill:url(#_未命名的渐变_75)"/><path d="M271.58 142.86v1.88s3.43 2.16 5.37 1.88l.89.94v.94h-10.8v-2.82s.5-.39.89-.94c.44-.55 0-1.88 0-1.88h3.66Z" class="cls-4"/><path d="M264.44 142.86v1.88s3.43 2.16 5.37 1.88l.89.94v.94h-10.8v-2.82s.5-.39.89-.94c.44-.55 0-1.88 0-1.88h3.66Z" class="cls-4"/><path d="M272.08 115s1.44 5.71 1.44 11.47c0 8.03-.72 16.95-.72 16.95h-5.1s-2.44-9.75-2.16-16.06c.28-6.31-.55-13.79.72-13.85 1.27-.06 5.82 1.5 5.82 1.5Z" class="cls-3"/><path d="M258.4 96.39s-.66-1.94-1.61-.78c-.94 1.16-1.11 1.88-.78 2.77.28.89.39 3.99.39 3.99s6.98 5.04 8.7 5.21c1.77.11 6.48-1.99 6.31-6.37-.17-4.38-1.66-8.14-3.54-8.75-1.88-.66-9.47 3.93-9.47 3.93Z" class="cls-2"/><path d="M237.9 133.94s-.11 12.41 10.91 12.41c6.31 0 10.19-5.82 10.19-5.82l1.44 2.94h5.1s3.16-27.42 1-29.02c-2.16-1.61-7.64-2.82-9.69-.17-2.1 2.66-18.94 19.66-18.94 19.66Z" class="cls-3"/><path d="M257.51 112.79s15.68 3.71 17.56 3.77c1.05.06 2.99.11 2.05-2.33-1.27-3.38-16.73-7.31-16.73-7.31l-2.88 5.87Z" class="cls-2"/><path d="M262.66 106.69s-4.27 7.37-9.86 13.74c-3.38 3.88-3.21 9.08-5.59 12.02 0 0-1.99.55-5.15 0-3.05-.55-5.59 2.94-5.59 2.94s-1.44-11.58 2.88-16.06c4.38-4.49 16.06-12.74 19.61-13.13 1.33-.11 3.71.5 3.71.5Z" class="cls-4"/><path d="M262.77 102.21s7.37.78 10.14-2.55 1.16-9.53-3.16-12.08c-4.32-2.55-10.8-4.21-17.78 3.82-1.66 1.88-5.43 5.65-5.43 5.65-4.99 2.66-8.64 4.82-9.64 7.7-2.44 7.26-2.05 21.6 0 18.67 2.71-3.88.78-.72 1.94-1.27 6.48-3.16 8.03-7.37 10.63-9.14 2.49-1.72 6.04-.94 7.81-2.77 1.5-1.55 5.48-8.03 5.48-8.03Z" style="fill-rule:evenodd;fill:#1c141e"/><path d="M269.92 110.63s-1 1.72-3.66 1.44c-2.6-.28 0-3.66 0-3.66s-1.16.44-1.44 0 1.38-2.1 2.16-2.22 4.38.61 7.98 2.94c3.66 2.33 4.54 3.82 4.38 5.82-.22 2.05-3.43 1.5-3.66 1.44s.72-2.49-1.44-3.66c-1.66-.83-4.32-2.1-4.32-2.1Z" style="fill:#f9cea8;fill-rule:evenodd"/></g></svg>